<?xml version="1.0" encoding="UTF-8"?>
<svg id="_Слой_1" data-name="Слой_1" xmlns="http://www.w3.org/2000/svg" version="1.1" xmlns:xlink="http://www.w3.org/1999/xlink" viewBox="0 0 696.73 550.54">
  <!-- Generator: Adobe Illustrator 29.6.1, SVG Export Plug-In . SVG Version: 2.1.1 Build 9)  -->
  <defs>
    <style>
      .st0 {
        fill: #152b45;
      }

      .st1 {
        fill: url(#_Безымянный_градиент_6);
      }
    </style>
    <linearGradient id="_Безымянный_градиент_6" data-name="Безымянный градиент 6" x1="-191.2" y1="688.46" x2="-191.2" y2="549.39" gradientTransform="translate(539.04 797.75) scale(1 -1)" gradientUnits="userSpaceOnUse">
      <stop offset="0" stop-color="#afdbd9"/>
      <stop offset="1" stop-color="#f3e9dd"/>
    </linearGradient>
  </defs>
  <path class="st0" d="M403.2,19.02h-110.68c-57.58,0-104.25,46.81-104.25,104.55v110.99c0,57.74,46.68,104.55,104.25,104.55h110.68c57.58,0,104.25-46.81,104.25-104.55v-110.99c0-57.74-46.68-104.55-104.25-104.55Z"/>
  <path class="st1" d="M377.02,109.34h-103.39l-4.73,26.98h108.35l4.51,18.49h-116.09l-2.59,14.79h96.06l4.51,18.49h-103.75l-2.59,14.79h82.54l4.51,18.49h-90.28l-4.73,26.98h127.7c38.24,0,69.34-31.18,69.34-69.53s-31.09-69.53-69.34-69.53v.05Z"/>
  <path class="st0" d="M106.77,437.27c-3.41-4.06-7.64-7.35-12.64-9.81-5.82-2.82-12.64-4.23-20.28-4.23-9.46,0-18.1,2.23-25.63,6.76-7.58,4.47-13.58,10.87-17.93,19.04-4.29,8.17-6.52,17.69-6.52,28.38s2.17,20.62,6.41,28.73c4.23,8.17,10.23,14.51,17.81,18.86,7.52,4.35,16.22,6.52,25.86,6.52,13.93,0,25.16-5.29,33.5-15.69l2.47,14.46h20.69v-144.09h-23.63v51.07h-.12ZM98.83,452.95c5.41,6.29,8.17,14.57,8.17,24.8s-2.76,18.1-8.11,24.27c-5.35,6.17-12.58,9.28-21.34,9.28s-15.99-3.17-21.34-9.4c-5.41-6.23-8.11-14.52-8.11-24.56s2.76-18.1,8.11-24.39c5.35-6.23,12.58-9.4,21.34-9.4s15.99,3.17,21.34,9.4h-.06Z"/>
  <path class="st0" d="M220.85,429.45c-7.76-4.11-16.81-6.17-26.92-6.17s-18.98,2.23-26.74,6.7c-7.76,4.47-13.87,10.87-18.22,19.04-4.35,8.17-6.52,17.75-6.52,28.56s2.23,20.15,6.7,28.26c4.47,8.11,10.87,14.46,19.04,18.92,8.17,4.47,17.81,6.7,28.8,6.7,12.64,0,23.28-3.47,31.74-10.34,8.46-6.88,13.75-15.81,15.63-26.56l.18-1h-23.63l-.18.65c-1.41,5.58-4.41,9.99-8.82,13.05-4.47,3.05-10.05,4.64-16.63,4.64-8.29,0-14.99-2.58-19.92-7.7-5-5.11-7.76-12.16-8.29-20.98v-.41h78.41l.12-.7c.41-2.88.59-5.7.59-8.46-.12-10.1-2.47-19.1-6.94-26.68-4.47-7.58-10.7-13.46-18.46-17.63l.06.12ZM167.01,465.94c.82-7.35,3.82-13.16,9.05-17.57,5.23-4.41,11.4-6.64,18.63-6.64,7.76,0,14.17,2.11,19.22,6.41,5.11,4.29,8.11,10.22,9.05,17.8h-55.95Z"/>
  <path class="st0" d="M281.8,386.2h-23.63v144.09h23.63v-144.09Z"/>
  <path class="st0" d="M372.2,429.45c-7.76-4.11-16.81-6.17-26.92-6.17s-18.98,2.23-26.75,6.7c-7.76,4.47-13.87,10.87-18.22,19.04-4.35,8.17-6.52,17.75-6.52,28.56s2.23,20.15,6.7,28.26c4.47,8.11,10.87,14.46,19.04,18.92,8.17,4.47,17.81,6.7,28.8,6.7,12.64,0,23.28-3.47,31.74-10.34,8.46-6.88,13.75-15.81,15.63-26.56l.18-1h-23.63l-.18.65c-1.41,5.58-4.41,9.99-8.82,13.05-4.46,3.05-10.05,4.64-16.63,4.64-8.29,0-14.99-2.58-19.92-7.7-5-5.11-7.76-12.22-8.29-20.98v-.41h78.41l.12-.7c.41-2.88.59-5.7.59-8.46-.12-10.1-2.47-19.1-6.94-26.68-4.47-7.58-10.7-13.46-18.46-17.63l.06.12ZM318.42,465.94c.83-7.35,3.82-13.16,9.05-17.57,5.23-4.41,11.4-6.64,18.63-6.64,7.76,0,14.16,2.11,19.22,6.41,5.11,4.29,8.11,10.22,9.05,17.8h-55.96Z"/>
  <path class="st0" d="M500.92,424.46h-24.98l-27.69,78.86-27.92-78.33-.24-.53h-25.33l38.85,105.24.18.59h28.04l39.09-105.83Z"/>
  <path class="st0" d="M576.51,429.45c-7.76-4.11-16.81-6.17-26.92-6.17s-18.98,2.23-26.74,6.7c-7.76,4.47-13.87,10.87-18.22,19.04-4.35,8.17-6.52,17.75-6.52,28.56s2.23,20.15,6.7,28.26c4.47,8.11,10.87,14.46,19.04,18.92,8.17,4.47,17.81,6.7,28.8,6.7,12.64,0,23.28-3.47,31.74-10.34,8.47-6.88,13.75-15.81,15.64-26.56l.18-1h-23.63l-.18.65c-1.41,5.58-4.41,9.99-8.82,13.05-4.47,3.05-10.05,4.64-16.63,4.64-8.29,0-14.99-2.58-19.92-7.7-5-5.11-7.76-12.16-8.29-20.98v-.41h78.41l.12-.7c.41-2.88.65-5.76.65-8.46-.12-10.1-2.47-19.1-6.94-26.68-4.47-7.58-10.64-13.46-18.46-17.63v.12ZM522.73,465.94c.82-7.35,3.82-13.16,9.05-17.57,5.23-4.41,11.4-6.64,18.63-6.64,7.76,0,14.16,2.11,19.22,6.41,5.06,4.29,8.11,10.22,9.05,17.8h-55.96Z"/>
  <path class="st0" d="M667.37,424.46c-8.11,0-14.69,1.47-19.57,4.29-4.23,2.47-7.82,5.82-10.7,9.93l-2.11-13.52-.12-.71h-21.1v105.83h23.63v-53.12c0-8.87,2-16.28,5.93-21.98,3.88-5.64,10.29-8.46,19.04-8.46h10.58v-22.21h-5.7l.12-.06Z"/>
</svg>