<?xml version="1.0" encoding="UTF-8"?>
<svg id="_Слой_1" data-name="Слой_1" xmlns="http://www.w3.org/2000/svg" version="1.1" xmlns:xlink="http://www.w3.org/1999/xlink" viewBox="0 0 1930.24 521.56">
  <!-- Generator: Adobe Illustrator 29.6.1, SVG Export Plug-In . SVG Version: 2.1.1 Build 9)  -->
  <defs>
    <style>
      .st0 {
        fill: #fff;
      }

      .st1 {
        fill: #152b45;
      }

      .st2 {
        fill: url(#_Безымянный_градиент_3);
      }
    </style>
    <linearGradient id="_Безымянный_градиент_3" data-name="Безымянный градиент 3" x1="-278.91" y1="759.37" x2="-278.91" y2="249.6" gradientTransform="translate(539.04 765.27) scale(1 -1)" gradientUnits="userSpaceOnUse">
      <stop offset="0" stop-color="#afdbd9"/>
      <stop offset="1" stop-color="#f3e9dd"/>
    </linearGradient>
  </defs>
  <rect class="st1" x="-.79" width="1931.04" height="521.56"/>
  <path class="st2" d="M348.26,5.89h-176.26C80.31,5.89,5.97,80.44,5.97,172.4v176.76c0,91.96,74.34,166.51,166.03,166.51h176.26c91.7,0,166.03-74.55,166.03-166.51v-176.76c0-91.96-74.34-166.51-166.03-166.51Z"/>
  <path class="st1" d="M306.57,149.72h-164.65l-7.54,42.97h172.56l7.18,29.45h-184.88l-4.13,23.56h152.98l7.18,29.45H120.02l-4.13,23.56h131.45l7.18,29.45H110.74l-7.54,42.97h203.37c60.9,0,110.42-49.66,110.42-110.74s-49.52-110.74-110.42-110.74v.07Z"/>
  <path class="st0" d="M852.26,187.43c-6.45-7.68-14.47-13.91-23.93-18.58-11.02-5.34-23.93-8.01-38.39-8.01-17.92,0-34.28,4.23-48.52,12.79-14.36,8.46-25.71,20.58-33.94,36.05-8.12,15.47-12.35,33.49-12.35,53.74s4.12,39.05,12.13,54.41c8.01,15.47,19.36,27.48,33.72,35.71,14.25,8.23,30.72,12.35,48.97,12.35,26.38,0,47.63-10.01,63.43-29.71l4.67,27.37h39.17V90.75h-44.74v96.69h-.22ZM837.23,217.14c10.24,11.91,15.47,27.59,15.47,46.95s-5.23,34.27-15.36,45.95c-10.13,11.68-23.82,17.58-40.4,17.58s-30.27-6.01-40.4-17.8c-10.24-11.79-15.36-27.48-15.36-46.51s5.23-34.27,15.36-46.17c10.13-11.79,23.82-17.8,40.4-17.8s30.27,6.01,40.4,17.8h-.11Z"/>
  <path class="st0" d="M1068.26,172.63c-14.69-7.79-31.83-11.68-50.97-11.68s-35.95,4.23-50.63,12.68c-14.69,8.46-26.26,20.58-34.5,36.05-8.23,15.47-12.35,33.6-12.35,54.07s4.23,38.16,12.69,53.52c8.46,15.35,20.59,27.37,36.06,35.83,15.47,8.46,33.72,12.68,54.53,12.68,23.93,0,44.07-6.56,60.09-19.58,16.02-13.02,26.04-29.93,29.6-50.29l.34-1.89h-44.74l-.33,1.22c-2.67,10.57-8.35,18.91-16.69,24.7-8.46,5.79-19.03,8.79-31.49,8.79-15.69,0-28.38-4.9-37.73-14.57-9.46-9.68-14.69-23.03-15.69-39.72v-.78h148.45l.22-1.34c.78-5.45,1.12-10.79,1.12-16.02-.23-19.14-4.68-36.16-13.13-50.51-8.46-14.35-20.26-25.48-34.95-33.38l.11.22ZM966.33,241.73c1.56-13.91,7.23-24.92,17.14-33.27,9.9-8.34,21.59-12.57,35.28-12.57,14.69,0,26.82,4.01,36.39,12.13,9.68,8.12,15.36,19.36,17.14,33.71h-105.94Z"/>
  <path class="st0" d="M1183.67,90.75h-44.74v272.81h44.74V90.75Z"/>
  <path class="st0" d="M1354.82,172.63c-14.68-7.79-31.83-11.68-50.97-11.68s-35.95,4.23-50.64,12.68c-14.68,8.46-26.26,20.58-34.5,36.05-8.23,15.47-12.35,33.6-12.35,54.07s4.23,38.16,12.69,53.52c8.46,15.35,20.59,27.37,36.06,35.83,15.47,8.46,33.72,12.68,54.53,12.68,23.92,0,44.07-6.56,60.09-19.58,16.03-13.02,26.05-29.93,29.6-50.29l.34-1.89h-44.74l-.33,1.22c-2.67,10.57-8.35,18.91-16.7,24.7-8.46,5.79-19.03,8.79-31.49,8.79-15.7,0-28.38-4.9-37.72-14.57-9.46-9.68-14.69-23.14-15.7-39.72v-.78h148.45l.23-1.34c.77-5.45,1.11-10.79,1.11-16.02-.23-19.14-4.68-36.16-13.13-50.51-8.46-14.35-20.25-25.48-34.94-33.38l.11.22ZM1253,241.73c1.56-13.91,7.24-24.92,17.13-33.27,9.91-8.34,21.59-12.57,35.28-12.57,14.69,0,26.82,4.01,36.39,12.13,9.68,8.12,15.36,19.36,17.13,33.71h-105.94Z"/>
  <path class="st0" d="M1598.54,163.18h-47.3l-52.42,149.31-52.86-148.31-.44-1h-47.97l73.56,199.27.34,1.11h53.08l74.01-200.38Z"/>
  <path class="st0" d="M1741.65,172.63c-14.69-7.79-31.83-11.68-50.97-11.68s-35.95,4.23-50.64,12.68c-14.69,8.46-26.27,20.58-34.5,36.05-8.24,15.47-12.35,33.6-12.35,54.07s4.23,38.16,12.69,53.52c8.46,15.35,20.58,27.37,36.06,35.83,15.47,8.46,33.71,12.68,54.53,12.68,23.92,0,44.07-6.56,60.09-19.58,16.02-13.02,26.04-29.93,29.6-50.29l.34-1.89h-44.74l-.33,1.22c-2.67,10.57-8.35,18.91-16.7,24.7-8.46,5.79-19.03,8.79-31.49,8.79-15.7,0-28.38-4.9-37.73-14.57-9.46-9.68-14.68-23.03-15.68-39.72v-.78h148.45l.23-1.34c.77-5.45,1.22-10.9,1.22-16.02-.23-19.14-4.68-36.16-13.13-50.51-8.46-14.35-20.14-25.48-34.94-33.38v.22ZM1639.83,241.73c1.56-13.91,7.23-24.92,17.13-33.27,9.91-8.34,21.59-12.57,35.28-12.57,14.68,0,26.81,4.01,36.38,12.13,9.58,8.12,15.36,19.36,17.14,33.71h-105.94Z"/>
  <path class="st0" d="M1913.7,163.18c-15.36,0-27.82,2.78-37.06,8.12-8.01,4.67-14.8,11.01-20.25,18.8l-4.01-25.59-.22-1.34h-39.96v200.38h44.74v-100.58c0-16.8,3.78-30.82,11.24-41.61,7.35-10.68,19.48-16.02,36.06-16.02h20.03v-42.06h-10.79l.22-.11Z"/>
</svg>