<?xml version="1.0" encoding="UTF-8"?>
<svg id="_Слой_1" data-name="Слой_1" xmlns="http://www.w3.org/2000/svg" version="1.1" xmlns:xlink="http://www.w3.org/1999/xlink" viewBox="0 0 1785.95 495.22">
  <!-- Generator: Adobe Illustrator 29.6.1, SVG Export Plug-In . SVG Version: 2.1.1 Build 9)  -->
  <defs>
    <style>
      .st0 {
        fill: url(#_Безымянный_градиент_4);
      }

      .st1 {
        fill: #152b45;
      }
    </style>
    <linearGradient id="_Безымянный_градиент_4" data-name="Безымянный градиент 4" x1="-284.69" y1="591.96" x2="-284.69" y2="391.34" gradientTransform="translate(539.04 738.93) scale(1 -1)" gradientUnits="userSpaceOnUse">
      <stop offset="0" stop-color="#afdbd9"/>
      <stop offset="1" stop-color="#f3e9dd"/>
    </linearGradient>
  </defs>
  <path class="st1" d="M334.21,16.73h-159.66C91.49,16.73,24.16,84.25,24.16,167.55v160.11c0,83.3,67.33,150.83,150.4,150.83h159.66c83.06,0,150.39-67.53,150.39-150.83v-160.11c0-83.3-67.33-150.83-150.39-150.83Z"/>
  <path class="st0" d="M296.45,147.04h-149.15l-6.83,38.92h156.31l6.5,26.67h-167.47l-3.74,21.34h138.57l6.5,26.67H127.47l-3.74,21.34h119.07l6.5,26.67H119.06l-6.83,38.92h184.22c55.17,0,100.02-44.98,100.02-100.31s-44.86-100.31-100.02-100.31v.07Z"/>
  <path class="st1" d="M790.74,129.44c-5.84-6.95-13.11-12.6-21.67-16.83-9.98-4.84-21.67-7.26-34.78-7.26-16.23,0-31.05,3.83-43.95,11.59-13,7.66-23.29,18.64-30.74,32.65-7.36,14.01-11.19,30.34-11.19,48.68s3.73,35.37,10.99,49.28c7.26,14.01,17.54,24.89,30.54,32.35,12.9,7.46,27.82,11.19,44.35,11.19,23.89,0,43.15-9.07,57.46-26.91l4.23,24.79h35.49V41.87h-40.53v87.58h-.2ZM777.13,156.35c9.28,10.78,14.01,24.99,14.01,42.53s-4.74,31.04-13.91,41.62c-9.17,10.58-21.57,15.92-36.59,15.92s-27.42-5.44-36.59-16.13c-9.27-10.68-13.91-24.89-13.91-42.13s4.74-31.04,13.91-41.82c9.18-10.68,21.57-16.13,36.59-16.13s27.42,5.44,36.59,16.13h-.1Z"/>
  <path class="st1" d="M986.4,116.04c-13.31-7.05-28.83-10.58-46.17-10.58s-32.56,3.83-45.87,11.49c-13.31,7.66-23.79,18.64-31.25,32.65-7.46,14.01-11.19,30.44-11.19,48.98s3.83,34.57,11.49,48.48c7.66,13.91,18.65,24.79,32.66,32.45,14.01,7.66,30.55,11.49,49.4,11.49,21.67,0,39.92-5.95,54.43-17.74,14.52-11.79,23.59-27.11,26.82-45.55l.3-1.71h-40.53l-.3,1.11c-2.42,9.57-7.56,17.13-15.12,22.37-7.66,5.24-17.24,7.96-28.53,7.96-14.21,0-25.7-4.43-34.17-13.2-8.57-8.77-13.31-20.86-14.22-35.98v-.71h134.48l.2-1.21c.7-4.94,1.01-9.78,1.01-14.51-.2-17.33-4.23-32.75-11.89-45.75-7.66-13-18.35-23.08-31.65-30.23l.1.2ZM894.06,178.63c1.41-12.6,6.55-22.58,15.52-30.13,8.97-7.56,19.56-11.39,31.96-11.39,13.3,0,24.29,3.63,32.96,10.99,8.77,7.36,13.91,17.54,15.53,30.54h-95.97Z"/>
  <path class="st1" d="M1090.94,41.87h-40.52v247.12h40.52V41.87Z"/>
  <path class="st1" d="M1245.98,116.04c-13.31-7.05-28.83-10.58-46.17-10.58s-32.56,3.83-45.86,11.49c-13.31,7.66-23.79,18.64-31.25,32.65-7.46,14.01-11.19,30.44-11.19,48.98s3.83,34.57,11.49,48.48c7.66,13.91,18.65,24.79,32.66,32.45,14.01,7.66,30.54,11.49,49.39,11.49,21.67,0,39.92-5.95,54.44-17.74,14.51-11.79,23.59-27.11,26.81-45.55l.3-1.71h-40.52l-.3,1.11c-2.42,9.57-7.56,17.13-15.12,22.37-7.66,5.24-17.24,7.96-28.53,7.96-14.21,0-25.7-4.43-34.17-13.2-8.57-8.77-13.31-20.96-14.21-35.98v-.71h134.47l.2-1.21c.71-4.94,1.01-9.78,1.01-14.51-.2-17.33-4.24-32.75-11.89-45.75-7.66-13-18.35-23.08-31.65-30.23l.1.2ZM1153.74,178.63c1.41-12.6,6.55-22.58,15.52-30.13,8.97-7.56,19.56-11.39,31.95-11.39,13.31,0,24.29,3.63,32.96,10.99,8.77,7.36,13.91,17.54,15.52,30.54h-95.96Z"/>
  <path class="st1" d="M1466.74,107.47h-42.84l-47.48,135.25-47.88-134.34-.4-.91h-43.45l66.63,180.5.3,1.01h48.08l67.03-181.51Z"/>
  <path class="st1" d="M1596.37,116.04c-13.31-7.05-28.83-10.58-46.17-10.58s-32.56,3.83-45.87,11.49c-13.31,7.66-23.79,18.64-31.25,32.65-7.46,14.01-11.19,30.44-11.19,48.98s3.83,34.57,11.49,48.48c7.66,13.91,18.65,24.79,32.66,32.45,14.01,7.66,30.55,11.49,49.4,11.49,21.67,0,39.92-5.95,54.44-17.74,14.51-11.79,23.59-27.11,26.81-45.55l.3-1.71h-40.52l-.31,1.11c-2.42,9.57-7.56,17.13-15.12,22.37-7.66,5.24-17.24,7.96-28.53,7.96-14.21,0-25.7-4.43-34.17-13.2-8.57-8.77-13.31-20.86-14.22-35.98v-.71h134.48l.2-1.21c.7-4.94,1.11-9.88,1.11-14.51-.21-17.33-4.24-32.75-11.9-45.75-7.66-13-18.25-23.08-31.65-30.23v.2ZM1504.14,178.63c1.41-12.6,6.55-22.58,15.53-30.13,8.97-7.56,19.55-11.39,31.95-11.39,13.31,0,24.29,3.63,32.96,10.99,8.67,7.36,13.91,17.54,15.53,30.54h-95.97Z"/>
  <path class="st1" d="M1752.22,107.47c-13.91,0-25.2,2.52-33.57,7.36-7.26,4.23-13.41,9.98-18.35,17.03l-3.63-23.18-.2-1.21h-36.19v181.51h40.52v-91.11c0-15.22,3.43-27.92,10.18-37.69,6.65-9.68,17.64-14.51,32.66-14.51h18.14v-38.1h-9.77l.2-.1Z"/>
  <path class="st1" d="M725.55,377.96c10.65,0,19.3,6.14,19.3,22.44v29.65h-10.85v-28.97c0-9.03-3.73-13.75-10.75-13.75-3.73,0-6.67,1.33-8.89,3.98-2.21,2.65-3.29,6.28-3.29,10.9v27.84h-10.95v-28.97c0-9.03-3.78-13.75-10.9-13.75-3.68,0-6.63,1.37-8.79,4.12-2.16,2.75-3.24,6.43-3.24,11.05v27.54h-10.85v-51.5h9.43l1.23,6.78c3.68-4.86,8.69-7.32,15.07-7.36,7.07,0,12.91,3.04,15.86,9.38,3.49-5.89,9.43-9.38,17.63-9.38ZM801.75,420.58h2.21v9.48h-5.74c-6.73,0-9.43-2.9-9.43-8.25-3.88,5.89-9.57,8.84-16.99,8.84-5.74,0-10.36-1.33-13.84-4.03-3.49-2.65-5.25-6.33-5.25-11.05,0-10.61,7.66-16.5,22-16.5h12.96v-3.09c0-5.74-4.17-9.28-11.24-9.28-6.33,0-10.8,2.99-11.59,7.56h-10.65c.54-5.06,2.85-9.03,6.93-11.93,4.07-2.9,9.33-4.37,15.81-4.37,13.75,0,21.51,6.58,21.51,18.71v20.62c0,2.5.98,3.29,3.34,3.29ZM787.66,408.94v-1.82h-13.45c-6.97,0-10.46,2.6-10.46,7.76,0,4.37,3.64,7.32,9.53,7.32,4.47,0,7.95-1.23,10.51-3.63,2.5-2.41,3.83-5.6,3.88-9.62ZM820.75,430.05h-10.85v-70.41h10.85v43.84l23.32-24.94h12.77l-19.39,20.82,20.62,30.69h-12.91l-15.17-22.73-9.23,9.67v13.06ZM884.48,430.64c-8.05,0-14.44-2.41-19.2-7.17-4.76-4.76-7.12-11.1-7.12-19.05s2.31-14.34,6.98-19.2c4.66-4.86,10.75-7.27,18.36-7.27s13.5,2.21,18.07,6.63c4.57,4.47,6.92,10.41,7.07,17.92,0,1.33-.1,2.7-.29,4.12h-38.83v.69c.15,4.37,1.52,7.91,4.12,10.51,2.6,2.65,5.99,3.98,10.26,3.98,6.68,0,11.44-3.34,12.96-9.03h10.85c-.93,5.25-3.49,9.53-7.66,12.86-4.18,3.34-9.33,5.01-15.56,5.01ZM869.9,398.68h27.45c-.83-7.61-6.09-11.98-13.75-11.98-3.54,0-6.58,1.08-9.18,3.29-2.6,2.21-4.12,5.11-4.52,8.69ZM982.24,385.72v-26.07h10.85v70.41h-9.43l-1.33-7.76c-4.12,5.55-9.72,8.35-16.79,8.35s-12.96-2.36-17.48-7.12c-4.57-4.71-6.82-11.1-6.82-19.2s2.3-14.24,6.87-19.1c4.57-4.86,10.36-7.27,17.43-7.27s12.87,2.6,16.7,7.76ZM956.51,416.75c2.75,3.19,6.39,4.76,10.85,4.76s8.1-1.57,10.85-4.76c2.75-3.14,4.12-7.22,4.12-12.23s-1.37-9.33-4.12-12.52c-2.75-3.19-6.39-4.76-10.85-4.76s-8.1,1.57-10.85,4.71c-2.75,3.19-4.12,7.32-4.12,12.37s1.37,9.23,4.12,12.42ZM1014,369.47c-1.28,1.23-2.85,1.87-4.76,1.87s-3.49-.64-4.71-1.87c-1.28-1.23-1.91-2.75-1.91-4.66s.64-3.49,1.91-4.71c1.23-1.23,2.8-1.82,4.71-1.82s3.49.59,4.76,1.82c1.23,1.23,1.86,2.8,1.86,4.71s-.64,3.44-1.86,4.66ZM1014.59,430.05h-10.85v-51.5h10.85v51.5ZM1083.53,359.65v9.57h-8.84c-3.54,0-5.01,1.47-5.01,5.01v4.32h13.85v9.57h-13.85v41.93h-10.85v-41.93h-18.9v41.93h-11v-41.93h-8.93v-9.57h8.93v-5.11c0-9.18,4.57-13.8,14.39-13.8h9.18v9.57h-7.66c-3.54,0-4.91,1.47-4.91,5.01v4.32h18.9v-5.11c0-9.18,4.52-13.8,14.34-13.8h10.36ZM1111.51,430.64c-8.05,0-14.43-2.41-19.2-7.17-4.76-4.76-7.12-11.1-7.12-19.05s2.31-14.34,6.97-19.2,10.75-7.27,18.36-7.27,13.5,2.21,18.07,6.63c4.57,4.47,6.93,10.41,7.07,17.92,0,1.33-.1,2.7-.29,4.12h-38.84v.69c.15,4.37,1.52,7.91,4.12,10.51,2.6,2.65,5.99,3.98,10.26,3.98,6.67,0,11.44-3.34,12.96-9.03h10.85c-.93,5.25-3.49,9.53-7.66,12.86-4.17,3.34-9.33,5.01-15.56,5.01ZM1096.93,398.68h27.45c-.84-7.61-6.09-11.98-13.75-11.98-3.53,0-6.58,1.08-9.18,3.29-2.6,2.21-4.12,5.11-4.52,8.69ZM1170.47,378.55h2.41v10.16h-4.81c-9.62,0-12.77,7.56-12.77,15.52v25.83h-10.85v-51.5h9.62l1.23,7.76c2.95-4.86,7.32-7.76,15.17-7.76ZM1201.55,430.64c-8.05,0-14.43-2.41-19.2-7.17-4.76-4.76-7.12-11.1-7.12-19.05s2.31-14.34,6.97-19.2c4.67-4.86,10.75-7.27,18.36-7.27s13.5,2.21,18.07,6.63c4.56,4.47,6.92,10.41,7.07,17.92,0,1.33-.1,2.7-.29,4.12h-38.84v.69c.15,4.37,1.52,7.91,4.13,10.51,2.6,2.65,5.99,3.98,10.26,3.98,6.68,0,11.44-3.34,12.96-9.03h10.85c-.93,5.25-3.49,9.53-7.66,12.86-4.17,3.34-9.33,5.01-15.56,5.01ZM1186.97,398.68h27.45c-.83-7.61-6.09-11.98-13.75-11.98-3.53,0-6.58,1.08-9.18,3.29-2.6,2.21-4.12,5.11-4.52,8.69ZM1261.65,377.96c11.34,0,20.67,6.24,20.67,23.42v28.67h-10.95v-27.74c0-9.82-4.18-14.97-12.28-14.97-8.64,0-13.75,6.33-13.75,16.79v25.92h-10.85v-51.5h9.43l1.23,6.78c3.98-4.91,9.47-7.36,16.49-7.36ZM1295.92,416.06v-27.94h-8.94v-9.57h8.94v-14.34h11v14.34h12.57v9.57h-12.57v26.86c0,4.07,1.37,5.5,5.5,5.5h7.66v9.57h-10.06c-9.77,0-14.09-4.57-14.09-13.99Z"/>
</svg>