<?xml version="1.0" encoding="UTF-8"?>
<svg id="_Слой_1" data-name="Слой_1" xmlns="http://www.w3.org/2000/svg" version="1.1" xmlns:xlink="http://www.w3.org/1999/xlink" viewBox="0 0 1930.24 521.56">
  <!-- Generator: Adobe Illustrator 29.6.1, SVG Export Plug-In . SVG Version: 2.1.1 Build 9)  -->
  <defs>
    <style>
      .st0 {
        fill: #152b45;
      }

      .st1 {
        fill: url(#_Безымянный_градиент_2);
      }
    </style>
    <linearGradient id="_Безымянный_градиент_2" data-name="Безымянный градиент 2" x1="-279.57" y1="615.69" x2="-279.57" y2="394.02" gradientTransform="translate(539.04 765.27) scale(1 -1)" gradientUnits="userSpaceOnUse">
      <stop offset="0" stop-color="#afdbd9"/>
      <stop offset="1" stop-color="#f3e9dd"/>
    </linearGradient>
  </defs>
  <path class="st0" d="M347.71,5.67h-176.41C79.52,5.67,5.12,80.28,5.12,172.32v176.92c0,92.04,74.4,166.66,166.18,166.66h176.41c91.78,0,166.18-74.61,166.18-166.66v-176.92c0-92.04-74.4-166.66-166.18-166.66Z"/>
  <path class="st1" d="M305.99,149.65h-164.8l-7.55,43.01h172.71l7.18,29.47h-185.05l-4.14,23.58h153.12l7.18,29.47H119.27l-4.14,23.58h131.57l7.18,29.47H109.98l-7.55,43.01h203.55c60.96,0,110.52-49.71,110.52-110.84s-49.56-110.84-110.52-110.84v.07Z"/>
  <path class="st0" d="M852.16,187.37c-6.46-7.68-14.48-13.92-23.95-18.6-11.03-5.35-23.95-8.02-38.43-8.02-17.93,0-34.3,4.23-48.56,12.81-14.37,8.46-25.73,20.6-33.97,36.08-8.13,15.48-12.37,33.52-12.37,53.79s4.12,39.09,12.14,54.45c8.02,15.48,19.38,27.51,33.75,35.75,14.26,8.24,30.74,12.36,49.01,12.36,26.4,0,47.67-10.02,63.49-29.73l4.68,27.39h39.21V90.6h-44.78v96.77h-.22ZM837.12,217.1c10.25,11.92,15.49,27.62,15.49,46.99s-5.24,34.3-15.37,45.99c-10.13,11.69-23.84,17.59-40.43,17.59s-30.29-6.01-40.43-17.82c-10.24-11.8-15.37-27.51-15.37-46.55s5.24-34.3,15.37-46.21c10.14-11.8,23.84-17.82,40.43-17.82s30.3,6.01,40.43,17.82h-.11Z"/>
  <path class="st0" d="M1068.35,172.56c-14.7-7.79-31.85-11.69-51.01-11.69s-35.98,4.23-50.68,12.69c-14.7,8.46-26.29,20.6-34.53,36.08-8.24,15.48-12.37,33.63-12.37,54.12s4.23,38.2,12.7,53.56c8.46,15.37,20.61,27.39,36.09,35.86,15.49,8.46,33.75,12.7,54.58,12.7,23.95,0,44.11-6.57,60.14-19.6,16.04-13.03,26.07-29.96,29.63-50.33l.33-1.89h-44.78l-.33,1.22c-2.67,10.58-8.35,18.93-16.71,24.72-8.46,5.79-19.05,8.8-31.52,8.8-15.7,0-28.4-4.9-37.76-14.59-9.47-9.69-14.7-23.05-15.71-39.75v-.78h148.59l.22-1.34c.78-5.46,1.11-10.8,1.11-16.04-.22-19.15-4.68-36.19-13.14-50.56-8.46-14.37-20.27-25.5-34.98-33.41l.11.22ZM966.33,241.71c1.56-13.92,7.24-24.94,17.15-33.3,9.92-8.35,21.61-12.58,35.31-12.58,14.7,0,26.84,4.01,36.42,12.14,9.69,8.13,15.37,19.38,17.16,33.74h-106.04Z"/>
  <path class="st0" d="M1183.86,90.6h-44.78v273.05h44.78V90.6Z"/>
  <path class="st0" d="M1355.17,172.56c-14.7-7.79-31.86-11.69-51.02-11.69s-35.97,4.23-50.68,12.69c-14.7,8.46-26.29,20.6-34.53,36.08-8.24,15.48-12.37,33.63-12.37,54.12s4.24,38.2,12.7,53.56c8.47,15.37,20.61,27.39,36.09,35.86,15.48,8.46,33.75,12.7,54.58,12.7,23.95,0,44.11-6.57,60.15-19.6,16.04-13.03,26.06-29.96,29.63-50.33l.33-1.89h-44.78l-.33,1.22c-2.68,10.58-8.36,18.93-16.71,24.72-8.47,5.79-19.05,8.8-31.53,8.8-15.7,0-28.4-4.9-37.76-14.59-9.47-9.69-14.7-23.16-15.7-39.75v-.78h148.58l.22-1.34c.78-5.46,1.12-10.8,1.12-16.04-.22-19.15-4.68-36.19-13.14-50.56-8.47-14.37-20.27-25.5-34.98-33.41l.11.22ZM1253.25,241.71c1.56-13.92,7.24-24.94,17.15-33.3,9.91-8.35,21.61-12.58,35.31-12.58,14.7,0,26.84,4.01,36.42,12.14,9.69,8.13,15.37,19.38,17.15,33.74h-106.04Z"/>
  <path class="st0" d="M1599.1,163.09h-47.34l-52.46,149.44-52.91-148.44-.44-1h-48.01l73.63,199.44.33,1.11h53.13l74.07-200.56Z"/>
  <path class="st0" d="M1742.34,172.56c-14.7-7.79-31.85-11.69-51.01-11.69s-35.98,4.23-50.68,12.69c-14.7,8.46-26.29,20.6-34.53,36.08-8.24,15.48-12.37,33.63-12.37,54.12s4.23,38.2,12.7,53.56c8.46,15.37,20.61,27.39,36.09,35.86,15.49,8.46,33.75,12.7,54.58,12.7,23.95,0,44.11-6.57,60.15-19.6,16.04-13.03,26.06-29.96,29.63-50.33l.33-1.89h-44.78l-.34,1.22c-2.67,10.58-8.35,18.93-16.71,24.72-8.46,5.79-19.05,8.8-31.52,8.8-15.7,0-28.4-4.9-37.76-14.59-9.47-9.69-14.7-23.05-15.71-39.75v-.78h148.59l.22-1.34c.78-5.46,1.23-10.91,1.23-16.04-.23-19.15-4.68-36.19-13.15-50.56-8.46-14.37-20.16-25.5-34.97-33.41v.22ZM1640.42,241.71c1.56-13.92,7.24-24.94,17.16-33.3,9.91-8.35,21.61-12.58,35.31-12.58,14.7,0,26.84,4.01,36.42,12.14,9.58,8.13,15.37,19.38,17.16,33.74h-106.04Z"/>
  <path class="st0" d="M1914.54,163.09c-15.37,0-27.85,2.78-37.09,8.13-8.02,4.68-14.81,11.02-20.27,18.82l-4.01-25.61-.22-1.34h-39.98v200.56h44.78v-100.67c0-16.82,3.79-30.85,11.25-41.65,7.35-10.69,19.49-16.04,36.09-16.04h20.05v-42.09h-10.8l.22-.11Z"/>
</svg>